<svg width="254" height="15" viewBox="0 0 254 15" fill="none" xmlns="http://www.w3.org/2000/svg">
<path d="M118.313 14.0571L119.151 11.4321H123.952L124.79 14.0571H129.052L124.251 0.342773H118.853L114.052 14.0571H118.313ZM120.046 8.64633L121.495 4.11958H121.609L123.058 8.64633H120.046Z" fill="white"/>
<path d="M130.453 14.0571H134.402V9.53025H135.765L138.322 14.0571H142.612L139.657 8.94097C141.206 8.23788 142.129 6.90534 142.129 5.0035C142.129 2.08385 139.963 0.342773 136.731 0.342773H130.453V14.0571ZM134.402 6.63748V3.31598H135.794C137.179 3.31598 138.01 3.82493 138.01 5.0035C138.01 6.17538 137.179 6.63748 135.794 6.63748H134.402Z" fill="white"/>
<path d="M143.414 3.34276H147.789V14.0571H151.681V3.34276H156.056V0.342773H143.414V3.34276Z" fill="white"/>
<path d="M170.973 4.86956H174.964C174.659 2.11726 172.01 0.155273 168.572 0.155273C164.652 0.155273 161.47 2.69986 161.47 7.2267C161.47 11.5659 164.354 14.2445 168.601 14.2445C172.408 14.2445 175.135 12.0481 175.135 8.29807V6.39633H168.686V9.04811H171.328C171.293 10.2401 170.398 11.0034 168.629 11.0034C166.584 11.0034 165.533 9.58385 165.533 7.17305C165.533 4.79583 166.669 3.39634 168.658 3.39634C169.893 3.39634 170.732 3.93198 170.973 4.86956Z" fill="white"/>
<path d="M180.305 14.0571L181.143 11.4321H185.945L186.783 14.0571H191.044L186.243 0.342773H180.845L176.044 14.0571H180.305ZM182.038 8.64633L183.487 4.11958H183.601L185.05 8.64633H182.038Z" fill="white"/>
<path d="M192.445 14.0571H202.275V11.0571H196.394V0.342773H192.445V14.0571Z" fill="white"/>
<path d="M203.871 14.0571H213.7V11.0571H207.82V0.342773H203.871V14.0571Z" fill="white"/>
<path d="M215.297 14.0571H225.751V11.0571H219.245V8.69998H225.24V5.6999H219.245V3.34276H225.779V0.342773H215.297V14.0571Z" fill="white"/>
<path d="M227.738 14.0571H231.687V9.53025H233.05L235.607 14.0571H239.897L236.942 8.94097C238.491 8.23788 239.414 6.90534 239.414 5.0035C239.414 2.08385 237.248 0.342773 234.016 0.342773H227.738V14.0571ZM231.687 6.63748V3.31598H233.079C234.464 3.31598 235.295 3.82493 235.295 5.0035C235.295 6.17538 234.464 6.63748 233.079 6.63748H231.687Z" fill="white"/>
<path d="M239.817 0.342773L245.158 9.74457V14.0571H249.078V9.74457L254.419 0.342773H250.016L247.175 5.91421H247.061L244.221 0.342773H239.817Z" fill="white"/>
<path d="M108.637 0.342773V14.057H105.342L100.086 6.85168H100.001V14.057H96.0522V0.342773H99.4045L104.575 7.52132H104.689V0.342773H108.637Z" fill="white"/>
<path d="M83.6118 14.057V0.342773H94.0947V3.34277H87.5607V5.6999H93.555V8.69989H87.5607V11.057H94.0663V14.057H83.6118Z" fill="white"/>
<path d="M69.4839 3.34277V0.342773H82.1259V3.34277H77.7509V14.057H73.8589V3.34277H69.4839Z" fill="white"/>
<path d="M57.4399 14.057V0.342773H67.9229V3.34277H61.3888V5.6999H67.3831V8.69989H61.3888V11.057H67.8945V14.057H57.4399Z" fill="white"/>
<path d="M46.0137 14.057V0.342773H49.9625V11.057H55.8432V14.057H46.0137Z" fill="white"/>
<path d="M32.8887 14.057V0.342773H39.1671C40.2466 0.342773 41.1912 0.543666 42.0009 0.945451C42.8105 1.34723 43.4402 1.91196 43.8901 2.63964C44.3399 3.36732 44.5648 4.21776 44.5648 5.19097C44.5648 6.17311 44.3328 7.02356 43.8687 7.7423C43.4095 8.46105 42.7632 9.01462 41.9298 9.40301C41.1012 9.7914 40.133 9.9856 39.025 9.9856H35.275V7.09275H38.2296C38.6936 7.09275 39.0889 7.01686 39.4156 6.86507C39.7471 6.70883 40.0004 6.48784 40.1756 6.20213C40.3555 5.91642 40.4455 5.57937 40.4455 5.19097C40.4455 4.79812 40.3555 4.4633 40.1756 4.18651C40.0004 3.90526 39.7471 3.69098 39.4156 3.54366C39.0889 3.39187 38.6936 3.31598 38.2296 3.31598H36.8375V14.057H32.8887Z" fill="white"/>
<path d="M31.0177 0.342773V14.057H27.0688V0.342773H31.0177Z" fill="white"/>
<path d="M13.7095 14.057V0.342773H19.9879C21.0674 0.342773 22.012 0.528041 22.8217 0.898575C23.6313 1.26911 24.261 1.80259 24.7109 2.49902C25.1607 3.19544 25.3856 4.03026 25.3856 5.00347C25.3856 5.98561 25.1536 6.81374 24.6896 7.48784C24.2303 8.16195 23.584 8.67087 22.7506 9.01462C21.922 9.35837 20.9538 9.53025 19.8458 9.53025H16.0958V6.6374H19.0504C19.5144 6.6374 19.9097 6.58383 20.2364 6.47668C20.5679 6.36508 20.8212 6.18874 20.9964 5.94767C21.1763 5.7066 21.2663 5.39187 21.2663 5.00347C21.2663 4.61062 21.1763 4.29142 20.9964 4.04589C20.8212 3.79589 20.5679 3.61285 20.2364 3.49678C19.9097 3.37625 19.5144 3.31598 19.0504 3.31598H17.6583V14.057H13.7095ZM22.2322 7.76239L25.8685 14.057H21.5788L18.0276 7.76239H22.2322Z" fill="white"/>
<path d="M-0.418457 3.34277V0.342773H12.2235V3.34277H7.84856V14.057H3.95653V3.34277H-0.418457Z" fill="white"/>
</svg>
